<svg width="123.142700" height="101.232040" viewBox="0 0 123.143 101.232" fill="none" xmlns="http://www.w3.org/2000/svg" xmlns:xlink="http://www.w3.org/1999/xlink">
	<desc>
			Created with Pixso.
	</desc>
	<defs/>
	<path id="Vector" d="M1.87 1.87L15.53 1.87C17.7 1.87 19.63 3.3 20.26 5.39L41.63 75.77C42.27 77.86 44.19 79.29 46.37 79.29L94.52 79.29C96.79 79.29 98.76 77.75 99.32 75.55L107.94 41.53C108.5 39.33 110.47 37.79 112.74 37.79L121.26 37.79" stroke="#FFFFFF" stroke-opacity="1.000000" stroke-width="3.756480" stroke-linecap="round"/>
	<path id="Vector" d="M72.47 21.62C71.74 20.89 70.57 20.89 69.84 21.62L58.03 33.44C57.31 34.17 57.31 35.34 58.03 36.07C58.76 36.79 59.93 36.79 60.66 36.07L71.15 25.56L81.65 36.07C82.38 36.79 83.55 36.79 84.28 36.07C85 35.34 85 34.17 84.28 33.44L72.47 21.62ZM73.01 57.61L73.01 22.93L69.3 22.93L69.3 57.61L73.01 57.61Z" fill="#FFFFFF" fill-opacity="1.000000" fill-rule="nonzero"/>
	<path id="Vector" d="M58.16 99.72C55.09 99.72 52.6 97.23 52.6 94.15C52.6 91.07 55.09 88.58 58.16 88.58C61.24 88.58 63.73 91.07 63.73 94.15C63.73 97.23 61.24 99.72 58.16 99.72Z" stroke="#FFFFFF" stroke-opacity="1.000000" stroke-width="3.005180"/>
	<path id="Vector" d="M85.38 99.72C82.31 99.72 79.81 97.23 79.81 94.15C79.81 91.07 82.31 88.58 85.38 88.58C88.46 88.58 90.95 91.07 90.95 94.15C90.95 97.23 88.46 99.72 85.38 99.72Z" stroke="#FFFFFF" stroke-opacity="1.000000" stroke-width="3.005180"/>
</svg>
